<svg xmlns="http://www.w3.org/2000/svg" width="17" height="23" viewBox="0 0 17 23" class="icon icon-about" fill="none"><path d="M8.78387 0.560059C10.2985 0.560059 11.6425 0.784058 12.8159 1.23206C13.9892 1.68006 14.9065 2.34139 15.5679 3.21606C16.2292 4.06939 16.5599 5.12539 16.5599 6.38406C16.5599 7.66406 16.2825 8.72006 15.7279 9.55206C15.1945 10.3627 14.4692 10.9814 13.5519 11.4081C12.6345 11.8134 11.6212 12.0801 10.5119 12.2081L10.2879 15.2161H6.28787L6.31987 10.3841C7.7492 10.2134 8.85853 9.98939 9.64787 9.71206C10.4585 9.41339 11.0239 9.04006 11.3439 8.59206C11.6852 8.14406 11.8559 7.61073 11.8559 6.99206C11.8559 6.39473 11.7279 5.89339 11.4719 5.48806C11.2372 5.08272 10.8745 4.77339 10.3839 4.56006C9.8932 4.34673 9.26387 4.24006 8.49587 4.24006C7.38653 4.24006 6.5012 4.56006 5.83987 5.20006C5.17853 5.81872 4.7732 6.70406 4.62387 7.85606L0.463867 6.25606C0.719867 5.14673 1.1892 4.16539 1.87187 3.31206C2.55453 2.43739 3.4612 1.76539 4.59187 1.29606C5.74387 0.805392 7.1412 0.560059 8.78387 0.560059ZM8.33587 17.3601C9.16787 17.3601 9.8292 17.5841 10.3199 18.0321C10.8105 18.4801 11.0559 19.0774 11.0559 19.8241C11.0559 20.5921 10.8105 21.2001 10.3199 21.6481C9.8292 22.0747 9.16787 22.2881 8.33587 22.2881C7.50387 22.2881 6.84253 22.0747 6.35187 21.6481C5.8612 21.2001 5.61587 20.5921 5.61587 19.8241C5.61587 19.0774 5.8612 18.4801 6.35187 18.0321C6.84253 17.5841 7.50387 17.3601 8.33587 17.3601Z" fill="black"></path></svg>